<mxfile host="Electron" modified="2023-10-06T10:43:15.014Z" agent="Mozilla/5.0 (X11; Linux x86_64) AppleWebKit/537.36 (KHTML, like Gecko) draw.io/22.0.2 Chrome/114.0.5735.289 Electron/25.8.4 Safari/537.36" etag="uILUuBJ34e5zCtRQaPVI" version="22.0.2" type="device">
  <diagram id="C5RBs43oDa-KdzZeNtuy" name="Page-1">
    <mxGraphModel dx="2206" dy="1189" grid="1" gridSize="10" guides="1" tooltips="1" connect="1" arrows="1" fold="1" page="1" pageScale="1" pageWidth="827" pageHeight="1169" math="0" shadow="0">
      <root>
        <mxCell id="WIyWlLk6GJQsqaUBKTNV-0" />
        <mxCell id="WIyWlLk6GJQsqaUBKTNV-1" parent="WIyWlLk6GJQsqaUBKTNV-0" />
        <mxCell id="WIyWlLk6GJQsqaUBKTNV-2" value="" style="rounded=0;html=1;jettySize=auto;orthogonalLoop=1;fontSize=11;endArrow=block;endFill=0;endSize=8;strokeWidth=1;shadow=0;labelBackgroundColor=none;edgeStyle=orthogonalEdgeStyle;" parent="WIyWlLk6GJQsqaUBKTNV-1" source="WIyWlLk6GJQsqaUBKTNV-3" target="WIyWlLk6GJQsqaUBKTNV-6" edge="1">
          <mxGeometry relative="1" as="geometry" />
        </mxCell>
        <mxCell id="WIyWlLk6GJQsqaUBKTNV-3" value="Shell start" style="rounded=1;whiteSpace=wrap;html=1;fontSize=12;glass=0;strokeWidth=1;shadow=0;" parent="WIyWlLk6GJQsqaUBKTNV-1" vertex="1">
          <mxGeometry x="353" y="260" width="120" height="40" as="geometry" />
        </mxCell>
        <mxCell id="WIyWlLk6GJQsqaUBKTNV-4" value="Yes" style="rounded=0;html=1;jettySize=auto;orthogonalLoop=1;fontSize=11;endArrow=block;endFill=0;endSize=8;strokeWidth=1;shadow=0;labelBackgroundColor=none;edgeStyle=orthogonalEdgeStyle;exitX=0;exitY=0.5;exitDx=0;exitDy=0;entryX=0.5;entryY=0;entryDx=0;entryDy=0;" parent="WIyWlLk6GJQsqaUBKTNV-1" source="WIyWlLk6GJQsqaUBKTNV-6" target="jz5P7R4gzkwKjzrcZZBE-4" edge="1">
          <mxGeometry x="-0.52" y="-10" relative="1" as="geometry">
            <mxPoint as="offset" />
            <mxPoint x="313.030303030303" y="440.02424242424263" as="targetPoint" />
          </mxGeometry>
        </mxCell>
        <mxCell id="WIyWlLk6GJQsqaUBKTNV-6" value="Args is 1 ?" style="rhombus;whiteSpace=wrap;html=1;shadow=0;fontFamily=Helvetica;fontSize=12;align=center;strokeWidth=1;spacing=6;spacingTop=-4;" parent="WIyWlLk6GJQsqaUBKTNV-1" vertex="1">
          <mxGeometry x="363" y="350" width="100" height="80" as="geometry" />
        </mxCell>
        <mxCell id="jz5P7R4gzkwKjzrcZZBE-1" value="No" style="rounded=0;html=1;jettySize=auto;orthogonalLoop=1;fontSize=11;endArrow=block;endFill=0;endSize=8;strokeWidth=1;shadow=0;labelBackgroundColor=none;edgeStyle=orthogonalEdgeStyle;exitX=1;exitY=0.5;exitDx=0;exitDy=0;entryX=0.5;entryY=0;entryDx=0;entryDy=0;" edge="1" target="jz5P7R4gzkwKjzrcZZBE-5" parent="WIyWlLk6GJQsqaUBKTNV-1" source="WIyWlLk6GJQsqaUBKTNV-6">
          <mxGeometry x="-0.52" y="10" relative="1" as="geometry">
            <mxPoint as="offset" />
            <mxPoint x="563" y="390" as="sourcePoint" />
            <mxPoint x="513.030303030303" y="440.02424242424263" as="targetPoint" />
          </mxGeometry>
        </mxCell>
        <mxCell id="jz5P7R4gzkwKjzrcZZBE-7" value="" style="edgeStyle=orthogonalEdgeStyle;rounded=0;orthogonalLoop=1;jettySize=auto;html=1;" edge="1" parent="WIyWlLk6GJQsqaUBKTNV-1" source="jz5P7R4gzkwKjzrcZZBE-4" target="jz5P7R4gzkwKjzrcZZBE-6">
          <mxGeometry relative="1" as="geometry" />
        </mxCell>
        <mxCell id="jz5P7R4gzkwKjzrcZZBE-4" value="Start interactive shell" style="rounded=1;whiteSpace=wrap;html=1;" vertex="1" parent="WIyWlLk6GJQsqaUBKTNV-1">
          <mxGeometry x="259" y="440" width="120" height="60" as="geometry" />
        </mxCell>
        <mxCell id="jz5P7R4gzkwKjzrcZZBE-18" style="edgeStyle=orthogonalEdgeStyle;rounded=0;orthogonalLoop=1;jettySize=auto;html=1;exitX=0.5;exitY=1;exitDx=0;exitDy=0;entryX=0.5;entryY=0;entryDx=0;entryDy=0;" edge="1" parent="WIyWlLk6GJQsqaUBKTNV-1" source="jz5P7R4gzkwKjzrcZZBE-5" target="jz5P7R4gzkwKjzrcZZBE-17">
          <mxGeometry relative="1" as="geometry" />
        </mxCell>
        <mxCell id="jz5P7R4gzkwKjzrcZZBE-5" value="Run the command" style="rounded=1;whiteSpace=wrap;html=1;" vertex="1" parent="WIyWlLk6GJQsqaUBKTNV-1">
          <mxGeometry x="449" y="440" width="120" height="60" as="geometry" />
        </mxCell>
        <mxCell id="jz5P7R4gzkwKjzrcZZBE-9" value="" style="edgeStyle=orthogonalEdgeStyle;rounded=0;orthogonalLoop=1;jettySize=auto;html=1;" edge="1" parent="WIyWlLk6GJQsqaUBKTNV-1" source="jz5P7R4gzkwKjzrcZZBE-6" target="jz5P7R4gzkwKjzrcZZBE-8">
          <mxGeometry relative="1" as="geometry" />
        </mxCell>
        <mxCell id="jz5P7R4gzkwKjzrcZZBE-6" value="Print the prompt" style="rounded=1;whiteSpace=wrap;html=1;" vertex="1" parent="WIyWlLk6GJQsqaUBKTNV-1">
          <mxGeometry x="259" y="540" width="120" height="60" as="geometry" />
        </mxCell>
        <mxCell id="jz5P7R4gzkwKjzrcZZBE-11" value="" style="edgeStyle=orthogonalEdgeStyle;rounded=0;orthogonalLoop=1;jettySize=auto;html=1;" edge="1" parent="WIyWlLk6GJQsqaUBKTNV-1" source="jz5P7R4gzkwKjzrcZZBE-8" target="jz5P7R4gzkwKjzrcZZBE-10">
          <mxGeometry relative="1" as="geometry" />
        </mxCell>
        <mxCell id="jz5P7R4gzkwKjzrcZZBE-8" value="Take the command" style="rounded=1;whiteSpace=wrap;html=1;" vertex="1" parent="WIyWlLk6GJQsqaUBKTNV-1">
          <mxGeometry x="259" y="640" width="120" height="60" as="geometry" />
        </mxCell>
        <mxCell id="jz5P7R4gzkwKjzrcZZBE-13" value="" style="edgeStyle=orthogonalEdgeStyle;rounded=0;orthogonalLoop=1;jettySize=auto;html=1;" edge="1" parent="WIyWlLk6GJQsqaUBKTNV-1" source="jz5P7R4gzkwKjzrcZZBE-10" target="jz5P7R4gzkwKjzrcZZBE-12">
          <mxGeometry relative="1" as="geometry" />
        </mxCell>
        <mxCell id="jz5P7R4gzkwKjzrcZZBE-10" value="Run the command" style="whiteSpace=wrap;html=1;rounded=1;" vertex="1" parent="WIyWlLk6GJQsqaUBKTNV-1">
          <mxGeometry x="259" y="740" width="120" height="60" as="geometry" />
        </mxCell>
        <mxCell id="jz5P7R4gzkwKjzrcZZBE-16" style="edgeStyle=orthogonalEdgeStyle;rounded=0;orthogonalLoop=1;jettySize=auto;html=1;exitX=0;exitY=0.5;exitDx=0;exitDy=0;entryX=0;entryY=0.5;entryDx=0;entryDy=0;" edge="1" parent="WIyWlLk6GJQsqaUBKTNV-1" source="jz5P7R4gzkwKjzrcZZBE-12" target="jz5P7R4gzkwKjzrcZZBE-4">
          <mxGeometry relative="1" as="geometry">
            <Array as="points">
              <mxPoint x="180" y="870" />
              <mxPoint x="180" y="470" />
            </Array>
          </mxGeometry>
        </mxCell>
        <mxCell id="jz5P7R4gzkwKjzrcZZBE-12" value="Show output" style="whiteSpace=wrap;html=1;rounded=1;" vertex="1" parent="WIyWlLk6GJQsqaUBKTNV-1">
          <mxGeometry x="259" y="840" width="120" height="60" as="geometry" />
        </mxCell>
        <mxCell id="jz5P7R4gzkwKjzrcZZBE-20" value="" style="edgeStyle=orthogonalEdgeStyle;rounded=0;orthogonalLoop=1;jettySize=auto;html=1;" edge="1" parent="WIyWlLk6GJQsqaUBKTNV-1" source="jz5P7R4gzkwKjzrcZZBE-17" target="jz5P7R4gzkwKjzrcZZBE-19">
          <mxGeometry relative="1" as="geometry" />
        </mxCell>
        <mxCell id="jz5P7R4gzkwKjzrcZZBE-17" value="Show output" style="whiteSpace=wrap;html=1;rounded=1;" vertex="1" parent="WIyWlLk6GJQsqaUBKTNV-1">
          <mxGeometry x="449" y="540" width="120" height="60" as="geometry" />
        </mxCell>
        <mxCell id="jz5P7R4gzkwKjzrcZZBE-19" value="Exit the shell" style="whiteSpace=wrap;html=1;rounded=1;" vertex="1" parent="WIyWlLk6GJQsqaUBKTNV-1">
          <mxGeometry x="449" y="640" width="120" height="60" as="geometry" />
        </mxCell>
      </root>
    </mxGraphModel>
  </diagram>
</mxfile>
